<?xml version="1.0" encoding="iso-8859-1"?>
<!-- Generator: Adobe Illustrator 19.0.0, SVG Export Plug-In . SVG Version: 6.00 Build 0)  -->
<svg version="1.1" id="Capa_1" xmlns="http://www.w3.org/2000/svg" xmlns:xlink="http://www.w3.org/1999/xlink" x="0px" y="0px"
	 viewBox="0 0 472.038 472.038" style="enable-background:new 0 0 472.038 472.038;" xml:space="preserve">
<circle style="fill:#B3EBFF;" cx="236.019" cy="48.038" r="48"/>
<path style="fill:#F77C6A;" d="M85.957,173.991c18.599,18.387,18.771,48.37,0.384,66.968c-0.127,0.129-0.255,0.257-0.384,0.384
	c-18.802,18.602-49.074,18.602-67.875,0c-18.599-18.387-18.77-48.37-0.384-66.968c0.127-0.129,0.255-0.256,0.384-0.384
	C36.883,155.389,67.155,155.389,85.957,173.991L85.957,173.991z"/>
<g>
	<path style="fill:#8CE2FF;" d="M275.568,20.864l-66.724,66.724c21.832,15.019,51.705,9.496,66.724-12.336
		C286.836,58.873,286.836,37.242,275.568,20.864z"/>
	<path style="fill:#8CE2FF;" d="M264.308,9.499l10.95,10.95C260.062-1.246,230.157-6.514,208.462,8.682S181.5,53.783,196.695,75.477
		c0.224,0.32,0.452,0.637,0.684,0.951L264.308,9.499z"/>
</g>
<path style="fill:#EDE3E3;" d="M284.019,128.038h-96c-17.673,0-32,14.327-32,32s14.327,32,32,32h96c17.673,0,32-14.327,32-32
	S301.692,128.038,284.019,128.038z"/>
<path style="fill:#27AE60;" d="M284.019,128.038h-48v64h48c17.673,0,32-14.327,32-32S301.692,128.038,284.019,128.038z"/>
<path style="fill:#EDE3E3;" d="M458.647,9.41c-12.497-12.496-32.758-12.496-45.255,0L345.51,77.293
	c-12.442,12.552-12.352,32.813,0.199,45.254c12.474,12.364,32.581,12.364,45.055,0l67.882-67.882
	C471.143,42.168,471.143,21.907,458.647,9.41L458.647,9.41z"/>
<g>
	<path style="fill:#FD614B;" d="M413.392,9.41l-33.941,33.941l45.255,45.255l33.941-33.941c12.497-12.497,12.497-32.758,0-45.255
		C446.15-3.087,425.889-3.087,413.392,9.41z"/>
	<path style="fill:#FD614B;" d="M44.769,160.773h14.954c-15.197-2.522-30.682,2.393-41.642,13.218
		c-18.599,18.431-18.735,48.45-0.304,67.048c7.277,7.344,16.756,12.107,26.991,13.565V160.773z"/>
	<path style="fill:#FD614B;" d="M85.957,173.991c-6.874-6.822-15.657-11.396-25.188-13.119v93.589
		c9.53-1.722,18.313-6.297,25.188-13.119c18.599-18.387,18.77-48.37,0.383-66.969C86.213,174.246,86.085,174.118,85.957,173.991z"/>
</g>
<path style="fill:#EDE3E3;" d="M126.528,77.292L58.646,9.41c-12.497-12.497-32.758-12.497-45.255,0s-12.497,32.758,0,45.255
	l67.882,67.882c12.497,12.497,32.758,12.497,45.255,0S139.025,89.789,126.528,77.292L126.528,77.292z"/>
<path style="fill:#FECD0D;" d="M13.391,54.665l33.941,33.941l45.255-45.255L58.646,9.41c-12.497-12.497-32.758-12.497-45.255,0
	S0.894,42.168,13.391,54.665z"/>
<path style="fill:#EFCB9A;" d="M446.909,195.372c-10.733-6.44-24.597-3.724-32.107,6.289l-44.881,59.841
	c-8.917,11.889-22.105,19.848-36.78,22.196l-153.122,20.34l105.386-42.317c7.074-2.593,11.696-9.421,11.475-16.952
	c-0.47-9.406-8.476-16.65-17.882-16.179c-1.41,0.07-2.805,0.316-4.154,0.73l-140.055,43.07
	c-17.139,4.897-31.632,16.402-40.289,31.984l-26.48,47.664l-40,120h120l6.018-48.147c1.211-9.687,7.877-17.819,17.138-20.906
	l203.458-67.819c13.743-4.581,25.241-14.199,32.179-26.917l48.375-79.202c7.031-11.512,3.399-26.545-8.113-33.576
	C447.019,195.438,446.964,195.405,446.909,195.372L446.909,195.372z"/>
<g>
</g>
<g>
</g>
<g>
</g>
<g>
</g>
<g>
</g>
<g>
</g>
<g>
</g>
<g>
</g>
<g>
</g>
<g>
</g>
<g>
</g>
<g>
</g>
<g>
</g>
<g>
</g>
<g>
</g>
</svg>
